<?xml version="1.0" encoding="utf-8"?>
<svg width="219.09384px" height="44.184013px" viewBox="0 0 219.09384 44.184013" version="1.1" xmlns:xlink="http://www.w3.org/1999/xlink" xmlns="http://www.w3.org/2000/svg">
  <defs>
    <path d="M10.8686 10L10.8706 10Q11.0425 10 11.2135 10.0168Q11.3846 10.0337 11.5532 10.0672Q11.7218 10.1008 11.8863 10.1507Q12.0508 10.2006 12.2096 10.2663Q12.3684 10.3321 12.52 10.4132Q12.6716 10.4942 12.8145 10.5897Q12.9574 10.6852 13.0903 10.7942Q13.2232 10.9033 13.3447 11.0248Q13.4663 11.1464 13.5753 11.2793Q13.6844 11.4121 13.7799 11.5551Q13.8754 11.698 13.9564 11.8496Q14.0374 12.0012 14.1032 12.16Q14.169 12.3188 14.2189 12.4833Q14.2688 12.6478 14.3023 12.8164Q14.3359 12.985 14.3527 13.156Q14.3696 13.3271 14.3696 13.499L14.3696 13.501Q14.3696 13.6729 14.3527 13.844Q14.3359 14.015 14.3023 14.1836Q14.2688 14.3522 14.2189 14.5167Q14.169 14.6812 14.1032 14.84Q14.0374 14.9988 13.9564 15.1504Q13.8754 15.302 13.7799 15.4449Q13.6844 15.5879 13.5753 15.7207Q13.4663 15.8536 13.3447 15.9752Q13.2232 16.0967 13.0903 16.2058Q12.9574 16.3148 12.8145 16.4103Q12.6716 16.5058 12.52 16.5868Q12.3684 16.6679 12.2096 16.7337Q12.0508 16.7994 11.8863 16.8493Q11.7218 16.8992 11.5532 16.9328Q11.3846 16.9663 11.2135 16.9832Q11.0425 17 10.8706 17L10.8686 17Q10.6967 17 10.5256 16.9832Q10.3545 16.9663 10.1859 16.9328Q10.0174 16.8992 9.85286 16.8493Q9.68837 16.7994 9.52956 16.7337Q9.37075 16.6679 9.21915 16.5868Q9.06755 16.5058 8.92463 16.4103Q8.7817 16.3148 8.64883 16.2058Q8.51595 16.0967 8.3944 15.9752Q8.27285 15.8536 8.16381 15.7207Q8.05476 15.5879 7.95925 15.4449Q7.86376 15.302 7.78272 15.1504Q7.70169 14.9988 7.63591 14.84Q7.57013 14.6812 7.52023 14.5167Q7.47034 14.3522 7.4368 14.1836Q7.40326 14.015 7.38642 13.844Q7.36957 13.6729 7.36957 13.501L7.36957 13.499Q7.36957 13.3271 7.38642 13.156Q7.40326 12.985 7.4368 12.8164Q7.47034 12.6478 7.52023 12.4833Q7.57013 12.3188 7.63591 12.16Q7.70169 12.0012 7.78272 11.8496Q7.86376 11.698 7.95925 11.5551Q8.05476 11.4121 8.16381 11.2793Q8.27285 11.1464 8.3944 11.0248Q8.51595 10.9033 8.64882 10.7942Q8.7817 10.6852 8.92463 10.5897Q9.06755 10.4942 9.21915 10.4132Q9.37075 10.3321 9.52956 10.2663Q9.68837 10.2006 9.85286 10.1507Q10.0174 10.1008 10.1859 10.0672Q10.3545 10.0337 10.5256 10.0168Q10.6967 10 10.8686 10L10.8686 10Z" id="path_1" />
    <path d="M24.8686 10L24.8706 10Q25.0425 10 25.2135 10.0168Q25.3846 10.0337 25.5532 10.0672Q25.7218 10.1008 25.8863 10.1507Q26.0508 10.2006 26.2096 10.2663Q26.3684 10.3321 26.52 10.4132Q26.6716 10.4942 26.8145 10.5897Q26.9574 10.6852 27.0903 10.7942Q27.2232 10.9033 27.3447 11.0248Q27.4663 11.1464 27.5753 11.2793Q27.6844 11.4121 27.7799 11.5551Q27.8754 11.698 27.9564 11.8496Q28.0374 12.0012 28.1032 12.16Q28.169 12.3188 28.2189 12.4833Q28.2688 12.6478 28.3023 12.8164Q28.3359 12.985 28.3527 13.156Q28.3696 13.3271 28.3696 13.499L28.3696 13.501Q28.3696 13.6729 28.3527 13.844Q28.3359 14.015 28.3023 14.1836Q28.2688 14.3522 28.2189 14.5167Q28.169 14.6812 28.1032 14.84Q28.0374 14.9988 27.9564 15.1504Q27.8754 15.302 27.7799 15.4449Q27.6844 15.5879 27.5753 15.7207Q27.4663 15.8536 27.3447 15.9752Q27.2232 16.0967 27.0903 16.2058Q26.9574 16.3148 26.8145 16.4103Q26.6716 16.5058 26.52 16.5868Q26.3684 16.6679 26.2096 16.7337Q26.0508 16.7994 25.8863 16.8493Q25.7218 16.8992 25.5532 16.9328Q25.3846 16.9663 25.2135 16.9832Q25.0425 17 24.8706 17L24.8686 17Q24.6967 17 24.5256 16.9832Q24.3545 16.9663 24.1859 16.9328Q24.0174 16.8992 23.8529 16.8493Q23.6884 16.7994 23.5296 16.7337Q23.3707 16.6679 23.2192 16.5868Q23.0676 16.5058 22.9246 16.4103Q22.7817 16.3148 22.6488 16.2058Q22.5159 16.0967 22.3944 15.9752Q22.2729 15.8536 22.1638 15.7207Q22.0548 15.5879 21.9593 15.4449Q21.8638 15.302 21.7827 15.1504Q21.7017 14.9988 21.6359 14.84Q21.5701 14.6812 21.5202 14.5167Q21.4703 14.3522 21.4368 14.1836Q21.4033 14.015 21.3864 13.844Q21.3696 13.6729 21.3696 13.501L21.3696 13.499Q21.3696 13.3271 21.3864 13.156Q21.4033 12.985 21.4368 12.8164Q21.4703 12.6478 21.5202 12.4833Q21.5701 12.3188 21.6359 12.16Q21.7017 12.0012 21.7827 11.8496Q21.8638 11.698 21.9593 11.5551Q22.0548 11.4121 22.1638 11.2793Q22.2729 11.1464 22.3944 11.0248Q22.5159 10.9033 22.6488 10.7942Q22.7817 10.6852 22.9246 10.5897Q23.0676 10.4942 23.2192 10.4132Q23.3707 10.3321 23.5296 10.2663Q23.6884 10.2006 23.8529 10.1507Q24.0174 10.1008 24.1859 10.0672Q24.3545 10.0337 24.5256 10.0168Q24.6967 10 24.8686 10Z" id="path_2" />
    <path d="M10.3686 0L24.6314 0Q24.7296 0 24.8274 0.00962573Q24.9251 0.0192515 25.0214 0.0384102Q25.1177 0.057569 25.2117 0.0860763Q25.3057 0.114584 25.3964 0.152165Q25.4872 0.189746 25.5738 0.236039Q25.6604 0.282333 25.742 0.336892Q25.8237 0.391452 25.8996 0.453752Q25.9755 0.516052 26.0449 0.585494Q26.1144 0.654935 26.1767 0.730848Q26.239 0.806761 26.2935 0.888415Q26.3481 0.970069 26.3944 1.05668Q26.4407 1.14329 26.4783 1.23402Q26.5159 1.32474 26.5444 1.41872Q26.5729 1.5127 26.592 1.60901Q26.6112 1.70533 26.6208 1.80306Q26.6304 1.9008 26.6304 1.999L26.6304 2.001Q26.6304 2.0992 26.6208 2.19694Q26.6112 2.29467 26.592 2.39099Q26.5729 2.4873 26.5444 2.58128Q26.5159 2.67525 26.4783 2.76598Q26.4407 2.85671 26.3944 2.94332Q26.3481 3.02993 26.2935 3.11158Q26.239 3.19324 26.1767 3.26915Q26.1144 3.34507 26.0449 3.41451Q25.9755 3.48395 25.8996 3.54625Q25.8237 3.60855 25.742 3.66311Q25.6604 3.71767 25.5738 3.76396Q25.4872 3.81025 25.3964 3.84783Q25.3057 3.88542 25.2117 3.91392Q25.1177 3.94243 25.0214 3.96159Q24.9251 3.98075 24.8274 3.99037Q24.7296 4 24.6314 4L10.3686 4Q10.2704 4 10.1726 3.99037Q10.0749 3.98075 9.97858 3.96159Q9.88226 3.94243 9.78829 3.91392Q9.69431 3.88542 9.60358 3.84783Q9.51285 3.81025 9.42624 3.76396Q9.33963 3.71767 9.25798 3.66311Q9.17633 3.60855 9.10042 3.54625Q9.0245 3.48395 8.95506 3.41451Q8.88562 3.34507 8.82332 3.26915Q8.76102 3.19324 8.70646 3.11158Q8.6519 3.02993 8.60561 2.94332Q8.55931 2.85671 8.52173 2.76598Q8.48415 2.67525 8.45564 2.58128Q8.42714 2.4873 8.40798 2.39099Q8.38882 2.29467 8.37919 2.19694Q8.36957 2.0992 8.36957 2.001L8.36957 1.999Q8.36957 1.9008 8.37919 1.80306Q8.38882 1.70533 8.40798 1.60901Q8.42714 1.5127 8.45564 1.41872Q8.48415 1.32474 8.52173 1.23402Q8.55931 1.14329 8.60561 1.05668Q8.6519 0.970069 8.70646 0.888415Q8.76102 0.806761 8.82332 0.730848Q8.88562 0.654935 8.95506 0.585494Q9.0245 0.516052 9.10041 0.453752Q9.17633 0.391452 9.25798 0.336892Q9.33963 0.282333 9.42624 0.236039Q9.51285 0.189746 9.60358 0.152165Q9.69431 0.114584 9.78829 0.0860763Q9.88226 0.057569 9.97858 0.0384102Q10.0749 0.0192515 10.1726 0.00962573Q10.2704 0 10.3686 0Z" id="path_3" />
    <path d="M1.999 4L33.001 4Q33.0992 4 33.1969 4.00963Q33.2947 4.01925 33.391 4.03841Q33.4873 4.05757 33.5813 4.08608Q33.6753 4.11458 33.766 4.15216Q33.8567 4.18975 33.9433 4.23604Q34.0299 4.28233 34.1116 4.33689Q34.1932 4.39145 34.2691 4.45375Q34.3451 4.51605 34.4145 4.58549Q34.4839 4.65493 34.5462 4.73085Q34.6085 4.80676 34.6631 4.88841Q34.7177 4.97007 34.764 5.05668Q34.8103 5.14329 34.8478 5.23402Q34.8854 5.32474 34.9139 5.41872Q34.9424 5.5127 34.9616 5.60901Q34.9808 5.70533 34.9904 5.80306Q35 5.9008 35 5.999L35 6.001Q35 6.0992 34.9904 6.19694Q34.9808 6.29467 34.9616 6.39099Q34.9424 6.4873 34.9139 6.58128Q34.8854 6.67525 34.8478 6.76598Q34.8103 6.85671 34.764 6.94332Q34.7177 7.02993 34.6631 7.11158Q34.6085 7.19324 34.5462 7.26915Q34.4839 7.34507 34.4145 7.41451Q34.3451 7.48395 34.2691 7.54625Q34.1932 7.60855 34.1116 7.66311Q34.0299 7.71767 33.9433 7.76396Q33.8567 7.81025 33.766 7.84783Q33.6753 7.88542 33.5813 7.91392Q33.4873 7.94243 33.391 7.96159Q33.2947 7.98075 33.1969 7.99037Q33.0992 8 33.001 8L1.999 8Q1.9008 8 1.80306 7.99037Q1.70533 7.98075 1.60901 7.96159Q1.5127 7.94243 1.41872 7.91392Q1.32474 7.88542 1.23402 7.84783Q1.14329 7.81025 1.05668 7.76396Q0.970069 7.71767 0.888415 7.66311Q0.806761 7.60855 0.730848 7.54625Q0.654935 7.48395 0.585494 7.41451Q0.516052 7.34507 0.453752 7.26915Q0.391452 7.19324 0.336892 7.11158Q0.282333 7.02993 0.236039 6.94332Q0.189746 6.85671 0.152165 6.76598Q0.114584 6.67525 0.0860763 6.58128Q0.057569 6.4873 0.0384102 6.39098Q0.0192515 6.29467 0.00962573 6.19694Q0 6.0992 0 6.001L0 5.999Q0 5.9008 0.00962573 5.80306Q0.0192515 5.70533 0.0384102 5.60901Q0.057569 5.5127 0.0860763 5.41872Q0.114584 5.32474 0.152165 5.23401Q0.189746 5.14329 0.236039 5.05668Q0.282333 4.97007 0.336892 4.88841Q0.391452 4.80676 0.453752 4.73085Q0.516052 4.65493 0.585494 4.58549Q0.654935 4.51605 0.730848 4.45375Q0.806761 4.39145 0.888415 4.33689Q0.970069 4.28233 1.05668 4.23604Q1.14329 4.18975 1.23402 4.15216Q1.32474 4.11458 1.41872 4.08608Q1.5127 4.05757 1.60901 4.03841Q1.70533 4.01925 1.80306 4.00963Q1.9008 4 1.999 4Z" id="path_4" />
    <path d="M1.999 8L33.001 8Q33.0992 8 33.1969 8.00963Q33.2947 8.01925 33.391 8.03841Q33.4873 8.05757 33.5813 8.08608Q33.6753 8.11458 33.766 8.15216Q33.8567 8.18975 33.9433 8.23604Q34.0299 8.28233 34.1116 8.33689Q34.1932 8.39145 34.2691 8.45375Q34.3451 8.51605 34.4145 8.58549Q34.4839 8.65493 34.5462 8.73085Q34.6085 8.80676 34.6631 8.88841Q34.7177 8.97007 34.764 9.05668Q34.8103 9.14329 34.8478 9.23401Q34.8854 9.32474 34.9139 9.41872Q34.9424 9.5127 34.9616 9.60901Q34.9808 9.70533 34.9904 9.80306Q35 9.90079 35 9.999L35 10.001Q35 10.0992 34.9904 10.1969Q34.9808 10.2947 34.9616 10.391Q34.9424 10.4873 34.9139 10.5813Q34.8854 10.6753 34.8478 10.766Q34.8103 10.8567 34.764 10.9433Q34.7177 11.0299 34.6631 11.1116Q34.6085 11.1932 34.5462 11.2692Q34.4839 11.3451 34.4145 11.4145Q34.3451 11.4839 34.2691 11.5462Q34.1932 11.6085 34.1116 11.6631Q34.0299 11.7177 33.9433 11.764Q33.8567 11.8103 33.766 11.8478Q33.6753 11.8854 33.5813 11.9139Q33.4873 11.9424 33.391 11.9616Q33.2947 11.9807 33.1969 11.9904Q33.0992 12 33.001 12L1.999 12Q1.9008 12 1.80306 11.9904Q1.70533 11.9807 1.60901 11.9616Q1.5127 11.9424 1.41872 11.9139Q1.32474 11.8854 1.23402 11.8478Q1.14329 11.8103 1.05668 11.764Q0.970069 11.7177 0.888415 11.6631Q0.806761 11.6085 0.730848 11.5462Q0.654935 11.4839 0.585494 11.4145Q0.516052 11.3451 0.453752 11.2692Q0.391452 11.1932 0.336892 11.1116Q0.282333 11.0299 0.236039 10.9433Q0.189746 10.8567 0.152165 10.766Q0.114584 10.6753 0.0860763 10.5813Q0.057569 10.4873 0.0384102 10.391Q0.0192515 10.2947 0.00962573 10.1969Q0 10.0992 0 10.001L0 9.999Q0 9.90079 0.00962573 9.80306Q0.0192515 9.70533 0.0384102 9.60901Q0.057569 9.5127 0.0860763 9.41872Q0.114584 9.32474 0.152165 9.23401Q0.189746 9.14329 0.236039 9.05668Q0.282333 8.97007 0.336892 8.88841Q0.391452 8.80676 0.453752 8.73085Q0.516052 8.65493 0.585494 8.58549Q0.654935 8.51605 0.730848 8.45375Q0.806761 8.39145 0.888415 8.33689Q0.970069 8.28233 1.05668 8.23604Q1.14329 8.18974 1.23402 8.15216Q1.32474 8.11458 1.41872 8.08608Q1.5127 8.05757 1.60901 8.03841Q1.70533 8.01925 1.80306 8.00963Q1.9008 8 1.999 8Z" id="path_5" />
    <path d="M219.094 32.5382L16.7865 32.5382Q16.6393 32.5382 16.4922 32.5309Q16.3451 32.5237 16.1985 32.5093Q16.052 32.4948 15.9063 32.4732Q15.7606 32.4516 15.6162 32.4229Q15.4718 32.3942 15.3289 32.3584Q15.1861 32.3226 15.0451 32.2799Q14.9042 32.2371 14.7655 32.1875Q14.6269 32.1379 14.4908 32.0815Q14.3548 32.0252 14.2216 31.9622Q14.0885 31.8992 13.9586 31.8298Q13.8288 31.7604 13.7024 31.6847Q13.5761 31.609 13.4537 31.5272Q13.3312 31.4453 13.2129 31.3576Q13.0947 31.2699 12.9808 31.1765Q12.867 31.083 12.7579 30.9841Q12.6487 30.8852 12.5446 30.7811Q12.4405 30.677 12.3416 30.5679Q12.2427 30.4587 12.1493 30.3449Q12.0558 30.2311 11.9681 30.1128Q11.8804 29.9945 11.7986 29.872Q11.7167 29.7496 11.641 29.6233Q11.5653 29.497 11.4959 29.3671Q11.4265 29.2372 11.3635 29.1041Q11.3006 28.9709 11.2442 28.8349Q11.1878 28.6988 11.1382 28.5602Q11.0886 28.4215 11.0459 28.2806Q11.0031 28.1397 10.9673 27.9968Q10.9315 27.854 10.9028 27.7095Q10.8741 27.5651 10.8525 27.4194Q10.8309 27.2737 10.8164 27.1272Q10.802 26.9806 10.7948 26.8335Q10.7875 26.6864 10.7875 26.5392L10.7875 -1.89955e-06Q10.5367 0.0175172 10.2881 0.0559747Q10.0396 0.0944321 9.79512 0.153558Q9.55066 0.212684 9.31202 0.292063Q9.07337 0.371442 8.8422 0.470518Q8.61104 0.569594 8.38898 0.687671Q8.16692 0.805747 7.95552 0.941996Q7.74412 1.07825 7.54487 1.23171Q7.34561 1.38518 7.1599 1.55478Q6.9742 1.72438 6.80334 1.90894Q6.63247 2.09349 6.47766 2.2917Q6.32285 2.4899 6.18517 2.70037Q6.04749 2.91084 5.9279 3.1321Q5.80832 3.35335 5.70768 3.58384Q5.60704 3.81433 5.52604 4.05243Q5.44504 4.29053 5.38426 4.53458Q5.32348 4.77862 5.28333 5.0269L0.0769056 37.2275Q0.0242011 37.5535 0.00759037 37.8832Q-0.00902031 38.213 0.0106636 38.5426Q0.0303475 38.8722 0.0860881 39.1977Q0.141829 39.5232 0.232953 39.8405Q0.324077 40.1579 0.449483 40.4634Q0.574889 40.7688 0.733062 41.0587Q0.891236 41.3485 1.08027 41.6193Q1.26929 41.89 1.4869 42.1384Q1.7045 42.3867 1.94804 42.6097Q2.19159 42.8327 2.45813 43.0276Q2.72468 43.2225 3.011 43.3869Q3.29733 43.5514 3.59998 43.6834Q3.90262 43.8155 4.21793 43.9135Q4.53324 44.0116 4.85741 44.0744Q5.18157 44.1372 5.51068 44.1641Q5.83978 44.191 6.16985 44.1816L211.466 38.3324Q211.775 38.3236 212.081 38.2832Q212.387 38.2427 212.687 38.1711Q212.988 38.0994 213.279 37.9973Q213.57 37.8952 213.85 37.7637Q214.129 37.6322 214.393 37.4728Q214.658 37.3133 214.905 37.1275Q215.151 36.9417 215.377 36.7316Q215.604 36.5215 215.807 36.2893L219.094 32.5382Z" id="path_6" />
    <clipPath id="clip_1">
      <use xlink:href="#path_1" />
    </clipPath>
    <clipPath id="clip_2">
      <use xlink:href="#path_2" />
    </clipPath>
    <clipPath id="clip_3">
      <use xlink:href="#path_3" />
    </clipPath>
    <clipPath id="clip_4">
      <use xlink:href="#path_4" />
    </clipPath>
    <clipPath id="clip_5">
      <use xlink:href="#path_5" />
    </clipPath>
    <clipPath id="clip_6">
      <use xlink:href="#path_6" />
    </clipPath>
  </defs>
  <g id="Group-3">
    <g id="Group-2" transform="matrix(0.8829483 -0.46947148 0.46947148 0.8829483 174.1771 18.998863)">
      <g id="Rectangle">
        <g clip-path="url(#clip_1)">
          <use xlink:href="#path_1" fill="none" stroke="#B0D8FF" stroke-width="4" />
        </g>
      </g>
      <g id="Rectangle-Copy-4">
        <g clip-path="url(#clip_2)">
          <use xlink:href="#path_2" fill="none" stroke="#B0D8FF" stroke-width="4" />
        </g>
      </g>
      <g id="Rectangle-Copy">
        <g clip-path="url(#clip_3)">
          <use xlink:href="#path_3" fill="none" stroke="#B0D8FF" stroke-width="4" />
        </g>
      </g>
      <g id="Rectangle-Copy-3">
        <g clip-path="url(#clip_4)">
          <use xlink:href="#path_4" fill="none" stroke="#B0D8FF" stroke-width="4" />
        </g>
      </g>
      <g id="Rectangle-Copy-5">
        <g clip-path="url(#clip_5)">
          <use xlink:href="#path_5" fill="none" stroke="#B0D8FF" stroke-width="4" />
        </g>
      </g>
    </g>
    <g id="Rectangle-Copy-4-Subtract">
      <g clip-path="url(#clip_6)">
        <use xlink:href="#path_6" fill="none" stroke="#B0D8FF" stroke-width="4" />
      </g>
    </g>
    <g id="Pristine-Car-Blog" fill="#005AB2" transform="translate(17.119171 1.7881699)">
      <path d="M26.928 8.072Q27.408 7.436 27.408 6.44Q27.408 5.444 26.964 4.88Q26.52 4.316 25.416 4.316Q24.816 4.316 24.252 4.736Q23.688 5.156 23.52 5.408Q23.352 5.66 23.256 5.828Q23.568 7.292 24.036 8Q24.504 8.708 25.476 8.708Q26.448 8.708 26.928 8.072ZM49.344 6.44Q49.344 7.436 48.864 8.072Q48.384 8.708 47.412 8.708Q46.44 8.708 45.972 8Q45.504 7.292 45.192 5.828Q45.288 5.66 45.456 5.408Q45.624 5.156 46.188 4.736Q46.752 4.316 47.352 4.316Q48.456 4.316 48.9 4.88Q49.344 5.444 49.344 6.44ZM2.976 5.636Q3.792 5.636 4.392 6.008Q4.992 6.38 5.424 7.436Q6.504 5.492 8.448 5.492Q10.944 5.492 12.12 6.944Q13.296 8.396 13.296 11.564Q13.296 14.732 11.688 16.94Q10.08 19.148 7.344 19.148Q6.336 19.148 5.832 18.956Q5.544 20.996 4.932 21.824Q4.32 22.652 3.216 22.652Q2.592 22.652 1.968 22.4Q1.344 22.148 1.032 21.884L0.72 21.644Q0.96 20.588 0.96 16.748Q0.96 10.964 0.768 7.46L0.696 6.428Q1.416 5.636 2.976 5.636ZM116.184 5.636Q117 5.636 117.6 6.008Q118.2 6.38 118.632 7.436Q119.712 5.492 121.656 5.492Q126.504 5.492 126.504 10.604Q126.504 12.284 125.88 13.508Q125.256 14.732 124.248 15.38Q126.528 16.124 126.528 18.14Q126.528 20.396 125.088 21.524Q123.648 22.652 121.704 22.652Q119.76 22.652 118.32 21.524Q117.696 22.652 116.424 22.652Q115.8 22.652 115.176 22.4Q114.552 22.148 114.24 21.884L113.928 21.644Q114.168 20.588 114.168 16.748Q114.168 10.964 113.976 7.46L113.904 6.428Q114.624 5.636 116.184 5.636ZM88.104 8.468Q88.104 8.084 87.984 6.956Q87.096 6.956 85.848 6.296Q84.6 5.636 83.628 5.636Q82.656 5.636 82.092 6.116Q81.528 6.596 81.288 7.124Q79.536 7.988 78.324 9.956Q77.112 11.924 77.112 15.02Q77.112 16.796 77.496 18.176Q77.88 19.556 78.48 20.396Q80.112 22.652 83.472 22.652C84.928 22.652 86.04 22.364 86.808 21.788Q87.288 21.428 87.6 20.924Q87.912 20.42 88.056 19.688Q88.2 18.956 88.032 18.26Q86.592 18.836 85.464 18.836Q84.336 18.836 83.616 18.14Q82.2 16.796 82.2 13.916Q82.2 11.564 82.704 9.812Q83.256 10.7 83.868 11.168Q84.48 11.636 85.464 11.636Q86.904 11.636 87.456 10.892Q87.744 10.508 87.912 10.088Q88.08 9.668 88.092 9.26Q88.104 8.852 88.104 8.468ZM127.68 10.7L127.68 19.82Q127.68 22.652 129.648 22.652Q130.296 22.652 130.872 22.244Q131.448 21.836 131.616 21.596Q131.784 21.356 131.88 21.188L131.352 19.964L131.352 8.78Q131.352 5.78 129.456 5.78Q128.808 5.78 128.208 6.104Q127.608 6.428 127.428 6.62Q127.248 6.812 127.152 6.932L127.296 7.388Q127.68 8.708 127.68 10.7ZM44.592 11.72Q44.592 11.06 44.352 10.46Q43.08 10.46 42.312 10.388L42.312 9.404Q42.312 6.404 40.44 6.404Q39.792 6.404 39.192 6.716Q38.592 7.028 38.412 7.22Q38.232 7.412 38.136 7.532L38.232 7.868Q38.544 8.828 38.64 10.484Q37.512 11.036 37.512 12.668L37.536 12.956Q38.04 13.196 38.664 13.364L38.664 18.596Q38.664 20.396 39.6 21.524Q40.536 22.652 42.072 22.652C42.776 22.652 43.332 22.404 43.74 21.908Q44.352 21.164 44.352 20.276Q42.312 19.508 42.312 17.156L42.312 13.628Q43.128 13.676 43.56 13.676Q43.992 13.676 44.256 13.328Q44.52 12.98 44.556 12.68Q44.592 12.38 44.592 11.72ZM31.992 13.004Q31.992 13.964 33.72 14.732Q34.416 15.068 35.124 15.464Q35.832 15.86 36.336 16.616Q36.84 17.372 36.84 18.452Q36.84 20.348 35.556 21.5Q34.272 22.652 32.388 22.652Q30.504 22.652 29.472 21.824Q28.44 20.996 28.44 20.084Q28.44 19.46 28.74 18.968Q29.04 18.476 29.352 18.308L29.64 18.14Q29.784 18.356 30.06 18.68Q30.336 19.004 31.152 19.532Q31.968 20.06 32.556 20.06Q33.144 20.06 33.372 19.88Q33.6 19.7 33.6 19.484Q33.6 19.076 32.844 18.62Q32.088 18.164 31.2 17.768Q30.312 17.372 29.556 16.604Q28.8 15.836 28.8 14.852Q28.8 13.868 29.388 12.98Q29.976 12.092 30.768 11.732Q30.888 10.964 31.74 10.388Q32.592 9.812 33.888 9.812Q35.184 9.812 35.976 10.412Q36.768 11.012 36.768 12.02Q36.768 13.028 36.48 13.484Q36.192 13.94 35.568 14.204Q34.512 13.028 31.992 12.788L31.992 13.004ZM16.44 22.652Q14.472 22.652 14.472 19.82L14.472 12.62L13.944 10.964Q14.04 10.844 14.22 10.652Q14.4 10.46 15 10.148Q15.6 9.836 16.248 9.836Q17.76 9.836 18.072 11.756Q19.248 9.932 20.868 9.932Q22.488 9.932 22.488 11.468Q22.488 12.812 21.912 13.676Q21.384 14.444 20.808 14.9Q19.68 13.892 18.144 13.604L18.144 19.964L18.672 21.188Q18.576 21.356 18.408 21.596Q18.24 21.836 17.664 22.244Q17.088 22.652 16.44 22.652ZM23.64 19.82Q23.64 22.652 25.608 22.652Q26.256 22.652 26.832 22.244Q27.408 21.836 27.576 21.596Q27.744 21.356 27.84 21.188L27.312 19.964L27.312 12.836Q27.312 9.836 25.416 9.836Q24.312 9.836 23.808 10.34Q23.64 12.62 23.64 19.82ZM47.544 22.652Q45.576 22.652 45.576 19.82Q45.576 12.62 45.744 10.34Q46.248 9.836 47.352 9.836Q49.248 9.836 49.248 12.836L49.248 19.964L49.776 21.188Q49.68 21.356 49.512 21.596Q49.344 21.836 48.768 22.244Q48.192 22.652 47.544 22.652ZM54.912 21.572Q54.624 20.996 54.624 19.82L54.624 12.956Q55.896 12.956 56.376 13.412Q56.856 13.868 56.856 15.188L56.856 19.82Q56.856 22.652 58.824 22.652Q59.472 22.652 60.048 22.244Q60.624 21.836 60.792 21.596Q60.96 21.356 61.056 21.188L60.528 19.964L60.528 13.484Q60.528 11.828 59.664 10.88Q58.8 9.932 57.54 9.932Q56.28 9.932 55.548 10.472Q54.816 11.012 54.552 11.756Q54.24 9.836 52.728 9.836Q52.08 9.836 51.48 10.148Q50.88 10.46 50.7 10.652Q50.52 10.844 50.424 10.964L50.568 11.42Q50.952 12.74 50.952 14.732L50.952 20.828Q50.952 21.668 51.396 22.16Q51.84 22.652 52.644 22.652C53.18 22.652 53.668 22.536 54.108 22.304Q54.768 21.956 54.912 21.572ZM99.432 19.82Q99.432 22.652 101.4 22.652Q102.048 22.652 102.624 22.244Q103.2 21.836 103.368 21.596Q103.536 21.356 103.632 21.188L103.104 19.964L103.104 13.604Q104.64 13.892 105.768 14.9Q106.344 14.444 106.872 13.676Q107.448 12.812 107.448 11.468Q107.448 9.932 105.828 9.932Q104.208 9.932 103.032 11.756Q102.72 9.836 101.208 9.836Q100.56 9.836 99.96 10.148Q99.36 10.46 99.18 10.652Q99 10.844 98.904 10.964L99.432 12.62L99.432 19.82ZM70.536 19.22Q70.8 19.484 70.8 19.916Q70.8 20.348 70.572 20.792Q70.344 21.236 69.9 21.656Q69.456 22.076 68.64 22.364C68.096 22.556 67.5 22.652 66.852 22.652Q65.88 22.652 65.112 22.376Q64.344 22.1 63.648 21.5Q62.136 20.156 62.136 17.108Q62.136 14.06 63.168 12.584Q64.2 11.108 65.52 10.964Q66.48 9.932 67.836 9.932Q69.192 9.932 70.044 10.916Q70.896 11.9 70.896 13.604Q70.896 15.596 69.432 16.748Q68.232 17.708 66.552 18.212Q67.392 19.316 69.336 19.316Q69.888 19.316 70.536 19.22ZM94.224 15.428Q94.224 14.6666 93.8455 14.2454Q93.3768 13.724 92.328 13.724Q91.248 13.724 90.072 14.42Q89.688 14.036 89.688 13.472Q89.688 12.908 90.012 12.308Q90.336 11.708 90.876 11.168Q91.416 10.628 92.256 10.28Q93.096 9.932 94.032 9.932Q95.904 9.932 96.912 11.108Q97.92 12.284 97.92 14.468L97.92 19.964L98.448 21.188Q98.352 21.356 98.184 21.596Q98.016 21.836 97.44 22.244Q96.864 22.652 96.24 22.652C95.2 22.652 94.568 22.076 94.344 20.924C93.816 22.076 93.084 22.652 92.148 22.652Q90.744 22.652 90.012 21.776Q89.28 20.9 89.28 19.484Q89.28 15.812 94.224 15.596L94.224 15.428ZM142.296 15.692Q142.296 19.076 140.808 20.864C139.816 22.056 138.576 22.652 137.088 22.652Q135.528 22.652 134.28 21.548Q133.608 20.972 133.2 19.808Q132.792 18.644 132.792 17.036Q132.792 14.612 133.704 13.328Q134.616 12.044 135.672 11.78Q136.056 10.604 137.28 10.124Q137.832 9.932 138.504 9.932Q142.296 9.932 142.296 15.692ZM146.604 21.092Q148.032 21.092 148.824 20.036L148.824 21.212Q148.824 22.796 147.144 22.796Q146.136 22.796 145.32 22.172Q144.936 22.556 144.876 22.928Q144.816 23.3 144.816 23.576Q144.816 23.852 144.984 24.32Q145.152 24.788 145.932 25.184Q146.712 25.58 147.912 25.58Q150.192 25.58 151.356 24.2Q152.52 22.82 152.52 20.276L152.52 12.308L152.424 12.068Q152.184 11.492 151.392 10.748Q150.48 9.932 148.92 9.932Q147.624 9.932 146.592 11.06Q145.608 11.42 144.588 12.704Q143.568 13.988 143.568 15.356L143.568 17.876Q143.568 19.316 144.372 20.204Q145.176 21.092 146.604 21.092ZM6 10.508Q6.096 11.948 6.096 13.748Q6.096 15.548 6 17.108Q7.248 16.796 7.944 15.8Q8.64 14.804 8.64 13.292Q8.64 11.78 7.86 11.144Q7.08 10.508 6.024 10.508L6 10.508ZM119.208 10.508Q119.304 11.948 119.304 12.92Q119.304 13.892 119.256 15.428Q119.928 15.068 121.224 15.044Q121.944 14.108 121.944 13.028Q121.944 10.508 119.232 10.508L119.208 10.508ZM148.824 18.788Q147 18.692 147 16.868L147 13.004Q148.488 13.34 148.824 14.036L148.824 18.788ZM67.56 14.78Q67.56 13.316 65.76 13.172L65.76 15.332Q65.76 16.412 65.952 17.06Q67.56 16.172 67.56 14.78ZM136.224 16.124Q136.224 19.3632 137.246 19.7262Q137.375 19.772 137.52 19.772Q138.672 19.772 138.672 16.34Q138.672 14.66 138.132 13.976Q137.592 13.292 136.632 13.292Q136.224 14.06 136.224 16.124ZM92.28 18.596Q92.28 19.532 92.928 19.796Q93.072 19.868 93.24 19.868Q93.72 19.868 94.224 19.316L94.224 16.676Q92.28 17.132 92.28 18.596ZM120.216 17.036L119.208 17.06Q119.16 17.972 119.016 19.172Q119.784 19.82 120.48 19.82Q121.176 19.82 121.464 19.496Q121.752 19.172 121.752 18.44Q121.752 17.708 121.26 17.372Q120.768 17.036 120.216 17.036Z" />
    </g>
  </g>
</svg>